<?xml version="1.0" encoding="UTF-8"?>
<svg width="1440px" height="1024px" viewBox="0 0 1440 1024" version="1.1" xmlns="http://www.w3.org/2000/svg" xmlns:xlink="http://www.w3.org/1999/xlink">
    <!-- Generator: Sketch 49.3 (51167) - http://www.bohemiancoding.com/sketch -->
    <title>Desktop HD</title>
    <desc>Created with Sketch.</desc>
    <defs>
        <linearGradient x1="100%" y1="50%" x2="-2.22044605e-14%" y2="50%" id="linearGradient-1">
            <stop stop-color="#B3E699" offset="0%"></stop>
            <stop stop-color="#61E4AA" offset="100%"></stop>
            <stop stop-color="#D8D8D8" offset="100%"></stop>
        </linearGradient>
    </defs>
    <g id="Desktop-HD" stroke="none" stroke-width="1" fill="none" fill-rule="evenodd">
        <path d="M0,1024 L0,819.021942 C262.079522,712.895512 472.707318,639.20303 631.883389,597.944496 C791.05946,556.685963 1060.43166,511.811864 1440,463.3222 L1440,1024 L0,1024 Z" id="Path" fill="url(#linearGradient-1)"></path>
        <path d="M-19,775 C407.542079,616.634436 740.651642,506.905624 980.328688,445.813566 C1220.00573,384.721507 1636.2295,303.450319 2229,202" id="Line" stroke="#FFFFFF" stroke-linecap="square"></path>
        <path d="M-33,802 C393.542079,643.634436 726.651642,533.905624 966.328688,472.813566 C1206.00573,411.721507 1622.2295,330.450319 2215,229" id="Line" stroke="#FFFFFF" stroke-linecap="square"></path>
        <path d="M64,1071 C390.737304,940.272405 645.903971,849.693473 829.5,799.263205 C1013.09603,748.832937 1331.92936,681.745202 1786,598" id="Line" stroke="#FFFFFF" stroke-linecap="square"></path>
        <path d="M-19,985 C307.737304,854.272405 562.903971,763.693473 746.5,713.263205 C930.096029,662.832937 1248.92936,595.745202 1703,512" id="Line" stroke="#FFFFFF" stroke-linecap="square"></path>
        <path d="M-35,822 C391.542079,670.543928 724.651642,565.602586 964.328688,507.175976 C1204.00573,448.749365 1620.2295,371.02404 2213,274" id="Line" stroke="#FFFFFF" stroke-linecap="square"></path>
        <path d="M-776,775 C-349.457921,616.634436 -16.3483582,506.905624 223.328688,445.813566 C463.005733,384.721507 879.229504,303.450319 1472,202" id="Line" stroke="#FFFFFF" stroke-linecap="square"></path>
        <path d="M-439,822 C-12.4579208,663.634436 320.651642,553.905624 560.328688,492.813566 C800.005733,431.721507 1216.2295,350.450319 1809,249" id="Line" stroke="#FFFFFF" stroke-linecap="square"></path>
        <path d="M-33,802 C393.542079,643.634436 726.651642,533.905624 966.328688,472.813566 C1206.00573,411.721507 1622.2295,330.450319 2215,229" id="Line" stroke="#FFFFFF" stroke-linecap="square"></path>
        <path d="M-46,1049 C280.737304,918.272405 535.903971,827.693473 719.5,777.263205 C903.096029,726.832937 1221.92936,659.745202 1676,576" id="Line" stroke="#FFFFFF" stroke-linecap="square"></path>
        <path d="M16,1049 C342.737304,918.272405 597.903971,827.693473 781.5,777.263205 C965.096029,726.832937 1283.92936,659.745202 1738,576" id="Line" stroke="#FFFFFF" stroke-linecap="square"></path>
        <path d="M-308,1060 C118.542079,908.543928 451.651642,803.602586 691.328688,745.175976 C931.005733,686.749365 1347.2295,609.02404 1940,512" id="Line" stroke="#FFFFFF" stroke-linecap="square"></path>
        <path d="M-790,802 C-363.457921,643.634436 -30.3483582,533.905624 209.328688,472.813566 C449.005733,411.721507 865.229504,330.450319 1458,229" id="Line" stroke="#FFFFFF" stroke-linecap="square"></path>
        <path d="M16,1099 C442.542079,940.634436 775.651642,830.905624 1015.32869,769.813566 C1255.00573,708.721507 1671.2295,627.450319 2264,526" id="Line" stroke="#FFFFFF" stroke-linecap="square"></path>
        <path d="M2,1126 C428.542079,967.634436 761.651642,857.905624 1001.32869,796.813566 C1241.00573,735.721507 1657.2295,654.450319 2250,553" id="Line" stroke="#FFFFFF" stroke-linecap="square"></path>
        <path d="M412,1049 C738.737304,918.272405 993.903971,827.693473 1177.5,777.263205 C1361.09603,726.832937 1679.92936,659.745202 2134,576" id="Line" stroke="#FFFFFF" stroke-linecap="square"></path>
        <path d="M528,1049 C854.737304,918.272405 1109.90397,827.693473 1293.5,777.263205 C1477.09603,726.832937 1795.92936,659.745202 2250,576" id="Line" stroke="#FFFFFF" stroke-linecap="square"></path>
        <path d="M0,1146 C426.542079,994.543928 759.651642,889.602586 999.328688,831.175976 C1239.00573,772.749365 1655.2295,695.02404 2248,598" id="Line" stroke="#FFFFFF" stroke-linecap="square"></path>
        <path d="M-741,1099 C-314.457921,940.634436 18.6516418,830.905624 258.328688,769.813566 C498.005733,708.721507 914.229504,627.450319 1507,526" id="Line" stroke="#FFFFFF" stroke-linecap="square"></path>
        <path d="M-404,1146 C22.5420792,987.634436 355.651642,877.905624 595.328688,816.813566 C835.005733,755.721507 1251.2295,674.450319 1844,573" id="Line" stroke="#FFFFFF" stroke-linecap="square"></path>
        <path d="M2,1126 C428.542079,967.634436 761.651642,857.905624 1001.32869,796.813566 C1241.00573,735.721507 1657.2295,654.450319 2250,553" id="Line" stroke="#FFFFFF" stroke-linecap="square"></path>
        <path d="M454,1046 C780.737304,915.272405 1035.90397,824.693473 1219.5,774.263205 C1403.09603,723.832937 1721.92936,656.745202 2176,573" id="Line" stroke="#FFFFFF" stroke-linecap="square"></path>
        <path d="M487,1096 C813.737304,965.272405 1068.90397,874.693473 1252.5,824.263205 C1436.09603,773.832937 1754.92936,706.745202 2209,623" id="Line" stroke="#FFFFFF" stroke-linecap="square"></path>
        <path d="M0,1146 C426.542079,994.543928 759.651642,889.602586 999.328688,831.175976 C1239.00573,772.749365 1655.2295,695.02404 2248,598" id="Line" stroke="#FFFFFF" stroke-linecap="square"></path>
        <path d="M-755,1126 C-328.457921,967.634436 4.65164175,857.905624 244.328688,796.813566 C484.005733,735.721507 900.229504,654.450319 1493,553" id="Line" stroke="#FFFFFF" stroke-linecap="square"></path>
        <rect id="Rectangle-2" stroke="#979797" x="0.5" y="0.5" width="1439" height="1023"></rect>
        <path d="M-45.5,918.5 C281.237304,787.772405 536.403971,697.193473 720,646.763205 C903.596029,596.332937 1222.42936,529.245202 1676.5,445.5" id="Line" stroke="#FFFFFF" stroke-linecap="square"></path>
        <path d="M0,918.5 C326.737304,787.772405 581.903971,697.193473 765.5,646.763205 C949.096029,596.332937 1267.92936,529.245202 1722,445.5" id="Line" stroke="#FFFFFF" stroke-linecap="square"></path>
        <path d="M-757,1146 C-330.457921,994.543928 2.65164175,889.602586 242.328688,831.175976 C482.005733,772.749365 898.229504,695.02404 1491,598" id="Line" stroke="#FFFFFF" stroke-linecap="square"></path>
    </g>
</svg>